<svg xmlns="http://www.w3.org/2000/svg" xmlns:xlink="http://www.w3.org/1999/xlink" width="500" zoomAndPan="magnify" viewBox="0 0 375 374.999991" height="500" preserveAspectRatio="xMidYMid meet" version="1.0"><defs><g/><clipPath id="df4e6fd082"><path d="M 116.644531 37.5 L 237 37.5 L 237 255.074219 L 116.644531 255.074219 Z M 116.644531 37.5 " clip-rule="nonzero"/></clipPath><clipPath id="22abfd3210"><path d="M 236.464844 49.90625 C 233.1875 52.417969 229.203125 54.03125 224.851562 54.382812 L 224.851562 43.601562 C 219.882812 39.773438 213.644531 37.5 206.886719 37.5 C 200.304688 37.5 194.242188 39.644531 189.332031 43.285156 L 189.074219 43.34375 L 189.074219 89.078125 L 196.082031 86.394531 L 196.082031 62.335938 C 199.425781 61.015625 203.066406 60.269531 206.886719 60.269531 C 207.878906 60.269531 208.863281 60.335938 209.828125 60.425781 L 209.828125 67.117188 C 213.515625 69.863281 218.074219 71.484375 223.03125 71.484375 C 228.078125 71.484375 232.742188 69.792969 236.464844 66.929688 L 230.894531 61.765625 Z M 189.074219 95.691406 L 189.074219 95.703125 L 186.988281 96.457031 L 180.015625 98.996094 L 180.015625 119.335938 L 164.507812 124.992188 L 164.507812 104.636719 L 148.617188 110.421875 L 148.617188 130.78125 L 133.117188 136.425781 L 133.117188 116.058594 L 116.921875 121.945312 L 116.921875 201.773438 C 116.921875 215.84375 123.199219 228.457031 133.117188 236.949219 C 133.21875 237.039062 133.316406 237.125 133.425781 237.203125 C 136.53125 239.832031 139.988281 242.054688 143.726562 243.789062 C 145.328125 244.664062 146.953125 245.488281 148.617188 246.277344 C 158.277344 250.84375 168.867188 253.785156 180.015625 254.730469 C 182.632812 254.957031 185.289062 255.074219 187.972656 255.074219 C 190.710938 255.074219 193.414062 254.957031 196.089844 254.71875 L 196.082031 93.09375 Z M 164.507812 181.53125 L 148.617188 187.308594 L 148.617188 171.710938 L 164.507812 166.003906 Z M 164.507812 181.53125 " clip-rule="nonzero"/></clipPath><linearGradient x1="54.05847" gradientTransform="matrix(1.99445, 0, 0, 1.994477, 116.923121, 37.499999)" y1="-2.571537" x2="4.370428" gradientUnits="userSpaceOnUse" y2="111.000023" id="be081304b6"><stop stop-opacity="1" stop-color="rgb(6.158447%, 31.521606%, 47.554016%)" offset="0"/><stop stop-opacity="1" stop-color="rgb(6.184387%, 31.690979%, 47.715759%)" offset="0.03125"/><stop stop-opacity="1" stop-color="rgb(6.234741%, 32.029724%, 48.040771%)" offset="0.0625"/><stop stop-opacity="1" stop-color="rgb(6.286621%, 32.368469%, 48.36731%)" offset="0.09375"/><stop stop-opacity="1" stop-color="rgb(6.336975%, 32.70874%, 48.692322%)" offset="0.125"/><stop stop-opacity="1" stop-color="rgb(6.388855%, 33.047485%, 49.017334%)" offset="0.15625"/><stop stop-opacity="1" stop-color="rgb(6.439209%, 33.38623%, 49.342346%)" offset="0.1875"/><stop stop-opacity="1" stop-color="rgb(6.491089%, 33.724976%, 49.668884%)" offset="0.193794"/><stop stop-opacity="1" stop-color="rgb(6.517029%, 33.894348%, 49.832153%)" offset="0.21875"/><stop stop-opacity="1" stop-color="rgb(6.541443%, 34.063721%, 49.993896%)" offset="0.25"/><stop stop-opacity="1" stop-color="rgb(6.593323%, 34.402466%, 50.318909%)" offset="0.28125"/><stop stop-opacity="1" stop-color="rgb(6.643677%, 34.741211%, 50.643921%)" offset="0.3125"/><stop stop-opacity="1" stop-color="rgb(6.695557%, 35.079956%, 50.970459%)" offset="0.34375"/><stop stop-opacity="1" stop-color="rgb(6.745911%, 35.418701%, 51.295471%)" offset="0.375"/><stop stop-opacity="1" stop-color="rgb(6.797791%, 35.757446%, 51.620483%)" offset="0.40625"/><stop stop-opacity="1" stop-color="rgb(6.848145%, 36.096191%, 51.945496%)" offset="0.4375"/><stop stop-opacity="1" stop-color="rgb(6.900024%, 36.434937%, 52.272034%)" offset="0.46875"/><stop stop-opacity="1" stop-color="rgb(6.950378%, 36.773682%, 52.597046%)" offset="0.5"/><stop stop-opacity="1" stop-color="rgb(7.002258%, 37.112427%, 52.922058%)" offset="0.53125"/><stop stop-opacity="1" stop-color="rgb(7.052612%, 37.452698%, 53.248596%)" offset="0.5625"/><stop stop-opacity="1" stop-color="rgb(7.104492%, 37.791443%, 53.573608%)" offset="0.59375"/><stop stop-opacity="1" stop-color="rgb(7.154846%, 38.130188%, 53.898621%)" offset="0.625"/><stop stop-opacity="1" stop-color="rgb(7.206726%, 38.468933%, 54.223633%)" offset="0.65625"/><stop stop-opacity="1" stop-color="rgb(7.25708%, 38.807678%, 54.550171%)" offset="0.6875"/><stop stop-opacity="1" stop-color="rgb(7.30896%, 39.146423%, 54.875183%)" offset="0.71875"/><stop stop-opacity="1" stop-color="rgb(7.359314%, 39.485168%, 55.200195%)" offset="0.75"/><stop stop-opacity="1" stop-color="rgb(7.411194%, 39.823914%, 55.525208%)" offset="0.78125"/><stop stop-opacity="1" stop-color="rgb(7.461548%, 40.162659%, 55.851746%)" offset="0.806206"/><stop stop-opacity="1" stop-color="rgb(7.487488%, 40.332031%, 56.015015%)" offset="0.8125"/><stop stop-opacity="1" stop-color="rgb(7.513428%, 40.501404%, 56.176758%)" offset="0.84375"/><stop stop-opacity="1" stop-color="rgb(7.563782%, 40.840149%, 56.50177%)" offset="0.875"/><stop stop-opacity="1" stop-color="rgb(7.615662%, 41.178894%, 56.826782%)" offset="0.90625"/><stop stop-opacity="1" stop-color="rgb(7.666016%, 41.517639%, 57.15332%)" offset="0.9375"/><stop stop-opacity="1" stop-color="rgb(7.71637%, 41.85791%, 57.478333%)" offset="0.96875"/><stop stop-opacity="1" stop-color="rgb(7.76825%, 42.196655%, 57.803345%)" offset="1"/></linearGradient><clipPath id="336b039591"><path d="M 211 102 L 228 102 L 228 126 L 211 126 Z M 211 102 " clip-rule="nonzero"/></clipPath><clipPath id="398a61b43c"><path d="M 227.035156 102.195312 L 211.558594 107.832031 L 211.558594 119.421875 L 227.035156 125.082031 Z M 227.035156 102.195312 " clip-rule="nonzero"/></clipPath><linearGradient x1="54.578988" gradientTransform="matrix(1.99445, 0, 0, 1.994477, 116.923121, 37.499999)" y1="32.160636" x2="49.118416" gradientUnits="userSpaceOnUse" y2="44.641916" id="4d2f825b0b"><stop stop-opacity="1" stop-color="rgb(6.576538%, 34.286499%, 50.209045%)" offset="0"/><stop stop-opacity="1" stop-color="rgb(6.5979%, 34.436035%, 50.352478%)" offset="0.228316"/><stop stop-opacity="1" stop-color="rgb(6.620789%, 34.585571%, 50.495911%)" offset="0.25"/><stop stop-opacity="1" stop-color="rgb(6.643677%, 34.733582%, 50.637817%)" offset="0.5"/><stop stop-opacity="1" stop-color="rgb(6.687927%, 35.031128%, 50.923157%)" offset="0.75"/><stop stop-opacity="1" stop-color="rgb(6.732178%, 35.328674%, 51.210022%)" offset="0.771684"/><stop stop-opacity="1" stop-color="rgb(6.755066%, 35.47821%, 51.353455%)" offset="1"/></linearGradient><clipPath id="c12b2d75f9"><path d="M 227 191 L 243 191 L 243 247 L 227 247 Z M 227 191 " clip-rule="nonzero"/></clipPath><clipPath id="dd5911c73e"><path d="M 227.035156 246.414062 C 232.515625 243.855469 237.691406 240.765625 242.515625 237.222656 L 242.515625 196.910156 L 227.035156 191.378906 Z M 227.035156 246.414062 " clip-rule="nonzero"/></clipPath><linearGradient x1="63.933715" gradientTransform="matrix(1.99445, 0, 0, 1.994477, 116.923121, 37.499999)" y1="77.574747" x2="52.554706" gradientUnits="userSpaceOnUse" y2="103.584307" id="669ea81543"><stop stop-opacity="1" stop-color="rgb(7.0755%, 37.599182%, 53.388977%)" offset="0"/><stop stop-opacity="1" stop-color="rgb(7.098389%, 37.753296%, 53.536987%)" offset="0.109561"/><stop stop-opacity="1" stop-color="rgb(7.122803%, 37.908936%, 53.686523%)" offset="0.125"/><stop stop-opacity="1" stop-color="rgb(7.145691%, 38.063049%, 53.83606%)" offset="0.25"/><stop stop-opacity="1" stop-color="rgb(7.191467%, 38.374329%, 54.133606%)" offset="0.375"/><stop stop-opacity="1" stop-color="rgb(7.23877%, 38.684082%, 54.431152%)" offset="0.5"/><stop stop-opacity="1" stop-color="rgb(7.286072%, 38.995361%, 54.730225%)" offset="0.625"/><stop stop-opacity="1" stop-color="rgb(7.331848%, 39.305115%, 55.027771%)" offset="0.75"/><stop stop-opacity="1" stop-color="rgb(7.37915%, 39.616394%, 55.326843%)" offset="0.875"/><stop stop-opacity="1" stop-color="rgb(7.426453%, 39.926147%, 55.62439%)" offset="0.890439"/><stop stop-opacity="1" stop-color="rgb(7.449341%, 40.081787%, 55.773926%)" offset="1"/></linearGradient><clipPath id="3ee9635e63"><path d="M 242 116 L 258 116 L 258 137 L 242 137 Z M 242 116 " clip-rule="nonzero"/></clipPath><clipPath id="9d2ef8da3c"><path d="M 242.515625 121.953125 L 242.515625 130.75 L 257.980469 136.40625 L 257.980469 116.3125 Z M 242.515625 121.953125 " clip-rule="nonzero"/></clipPath><linearGradient x1="69.839794" gradientTransform="matrix(1.99445, 0, 0, 1.994477, 116.923121, 37.499999)" y1="39.128659" x2="64.894524" gradientUnits="userSpaceOnUse" y2="50.432109" id="7454b052b0"><stop stop-opacity="1" stop-color="rgb(6.57959%, 34.310913%, 50.231934%)" offset="0"/><stop stop-opacity="1" stop-color="rgb(6.599426%, 34.44519%, 50.361633%)" offset="0.25"/><stop stop-opacity="1" stop-color="rgb(6.640625%, 34.715271%, 50.619507%)" offset="0.251948"/><stop stop-opacity="1" stop-color="rgb(6.660461%, 34.849548%, 50.749207%)" offset="0.5"/><stop stop-opacity="1" stop-color="rgb(6.680298%, 34.983826%, 50.878906%)" offset="0.748052"/><stop stop-opacity="1" stop-color="rgb(6.70166%, 35.119629%, 51.008606%)" offset="0.75"/><stop stop-opacity="1" stop-color="rgb(6.721497%, 35.253906%, 51.138306%)" offset="1"/></linearGradient></defs><g clip-path="url(#df4e6fd082)"><g clip-path="url(#22abfd3210)"><path fill="url(#be081304b6)" d="M 116.921875 37.5 L 116.921875 255.074219 L 236.464844 255.074219 L 236.464844 37.5 Z M 116.921875 37.5 " fill-rule="nonzero"/></g></g><g clip-path="url(#336b039591)"><g clip-path="url(#398a61b43c)"><path fill="url(#4d2f825b0b)" d="M 211.558594 102.195312 L 211.558594 125.082031 L 227.035156 125.082031 L 227.035156 102.195312 Z M 211.558594 102.195312 " fill-rule="nonzero"/></g></g><g clip-path="url(#c12b2d75f9)"><g clip-path="url(#dd5911c73e)"><path fill="url(#669ea81543)" d="M 227.035156 191.378906 L 227.035156 246.414062 L 242.515625 246.414062 L 242.515625 191.378906 Z M 227.035156 191.378906 " fill-rule="nonzero"/></g></g><g clip-path="url(#3ee9635e63)"><g clip-path="url(#9d2ef8da3c)"><path fill="url(#7454b052b0)" d="M 242.515625 116.3125 L 242.515625 136.40625 L 257.980469 136.40625 L 257.980469 116.3125 Z M 242.515625 116.3125 " fill-rule="nonzero"/></g></g><g fill="#146c94" fill-opacity="1"><g transform="translate(112.889795, 309.090989)"><g><path d="M 1.511719 0 L 11.027344 0 L 11.027344 -0.453125 C 8.15625 -0.453125 8.15625 -3.699219 8.15625 -5.550781 L 8.15625 -22.277344 L 28.660156 -22.277344 L 28.660156 -5.550781 C 28.660156 -3.699219 28.660156 -0.453125 25.789062 -0.453125 L 25.789062 0 L 35.304688 0 L 35.304688 -0.453125 C 32.4375 -0.453125 32.4375 -3.699219 32.4375 -5.550781 L 32.4375 -32.210938 C 32.4375 -34.058594 32.4375 -37.308594 35.304688 -37.308594 L 35.304688 -37.761719 L 25.789062 -37.761719 L 25.789062 -37.308594 C 28.660156 -37.308594 28.660156 -34.058594 28.660156 -32.210938 L 28.660156 -23.035156 L 8.15625 -23.035156 L 8.15625 -32.210938 C 8.15625 -34.058594 8.15625 -37.308594 11.027344 -37.308594 L 11.027344 -37.761719 L 1.511719 -37.761719 L 1.511719 -37.308594 C 4.378906 -37.308594 4.378906 -34.058594 4.378906 -32.210938 L 4.378906 -5.550781 C 4.378906 -3.699219 4.378906 -0.453125 1.511719 -0.453125 Z M 1.511719 0 "/></g></g></g><g fill="#146c94" fill-opacity="1"><g transform="translate(149.703377, 309.090989)"><g><path d="M 21.484375 0.945312 C 32.8125 0.945312 40.707031 -7.929688 40.707031 -18.878906 C 40.707031 -29.832031 32.8125 -38.703125 21.484375 -38.703125 C 10.15625 -38.703125 2.265625 -29.832031 2.265625 -18.878906 C 2.265625 -7.929688 10.15625 0.945312 21.484375 0.945312 Z M 6.230469 -18.878906 C 6.230469 -29.300781 12.5 -37.761719 21.484375 -37.761719 C 30.472656 -37.761719 36.742188 -29.300781 36.742188 -18.878906 C 36.742188 -8.457031 30.472656 0 21.484375 0 C 12.5 0 6.230469 -8.457031 6.230469 -18.878906 Z M 6.230469 -18.878906 "/></g></g></g><g fill="#146c94" fill-opacity="1"><g transform="translate(192.671421, 309.090989)"><g><path d="M 2.265625 -29.1875 C 2.265625 -14.085938 27.714844 -22.203125 27.714844 -9.816406 C 27.714844 -4.945312 24.695312 0 17.710938 0 C 11.78125 0 6.117188 -4.570312 3.4375 -9.476562 L 2.984375 -9.476562 L 2.984375 -4.191406 C 6.304688 -1.09375 10.648438 0.945312 17.21875 0.945312 C 25.714844 0.945312 30.246094 -5.023438 30.246094 -10.382812 C 30.246094 -26.960938 4.757812 -17.859375 4.757812 -30.472656 C 4.757812 -34.625 7.589844 -37.609375 15.367188 -37.609375 C 20.277344 -37.609375 25.300781 -35.003906 27.300781 -29.832031 L 27.753906 -29.832031 L 25.714844 -37.761719 C 25.714844 -37.761719 22.542969 -38.703125 16.613281 -38.703125 C 7.0625 -38.703125 2.265625 -34.738281 2.265625 -29.1875 Z M 2.265625 -29.1875 "/></g></g></g><g fill="#146c94" fill-opacity="1"><g transform="translate(224.803067, 309.090989)"><g><path d="M 1.511719 -37.761719 L 1.511719 -37.308594 C 4.378906 -37.308594 4.378906 -34.058594 4.378906 -32.210938 L 4.378906 -5.550781 C 4.378906 -3.699219 4.378906 -0.453125 1.511719 -0.453125 L 1.511719 0 L 17.21875 0 C 28.886719 0 35.042969 -8.722656 35.042969 -18.878906 C 35.042969 -29.039062 28.886719 -37.761719 17.21875 -37.761719 Z M 8.15625 -0.753906 L 8.15625 -37.003906 L 16.3125 -37.003906 C 25.414062 -37.003906 31.039062 -28.054688 31.078125 -18.878906 C 31.113281 -9.742188 25.601562 -0.753906 16.3125 -0.753906 Z M 8.15625 -0.753906 "/></g></g></g><g fill="#146c94" fill-opacity="1"><g transform="translate(129.573063, 333.637721)"><g><path d="M 7.90625 -3.0625 C 7.90625 -2.0625 7.546875 -1.273438 6.828125 -0.703125 C 6.109375 -0.128906 5.109375 0.15625 3.828125 0.15625 C 2.648438 0.15625 1.609375 -0.0664062 0.703125 -0.515625 L 0.703125 -2.6875 C 1.453125 -2.351562 2.082031 -2.117188 2.59375 -1.984375 C 3.113281 -1.847656 3.585938 -1.78125 4.015625 -1.78125 C 4.523438 -1.78125 4.914062 -1.878906 5.1875 -2.078125 C 5.46875 -2.273438 5.609375 -2.566406 5.609375 -2.953125 C 5.609375 -3.171875 5.546875 -3.363281 5.421875 -3.53125 C 5.304688 -3.695312 5.128906 -3.859375 4.890625 -4.015625 C 4.660156 -4.171875 4.1875 -4.421875 3.46875 -4.765625 C 2.789062 -5.078125 2.28125 -5.378906 1.9375 -5.671875 C 1.601562 -5.960938 1.335938 -6.300781 1.140625 -6.6875 C 0.941406 -7.082031 0.84375 -7.535156 0.84375 -8.046875 C 0.84375 -9.023438 1.171875 -9.789062 1.828125 -10.34375 C 2.492188 -10.90625 3.410156 -11.1875 4.578125 -11.1875 C 5.148438 -11.1875 5.695312 -11.117188 6.21875 -10.984375 C 6.738281 -10.847656 7.28125 -10.65625 7.84375 -10.40625 L 7.09375 -8.59375 C 6.5 -8.832031 6.007812 -9 5.625 -9.09375 C 5.25 -9.195312 4.875 -9.25 4.5 -9.25 C 4.050781 -9.25 3.707031 -9.144531 3.46875 -8.9375 C 3.238281 -8.726562 3.125 -8.457031 3.125 -8.125 C 3.125 -7.914062 3.171875 -7.734375 3.265625 -7.578125 C 3.359375 -7.429688 3.507812 -7.285156 3.71875 -7.140625 C 3.925781 -6.992188 4.421875 -6.738281 5.203125 -6.375 C 6.234375 -5.875 6.941406 -5.375 7.328125 -4.875 C 7.710938 -4.382812 7.90625 -3.78125 7.90625 -3.0625 Z M 7.90625 -3.0625 "/></g></g></g><g fill="#146c94" fill-opacity="1"><g transform="translate(144.26169, 333.637721)"><g><path d="M 7.734375 0 L 1.390625 0 L 1.390625 -11.03125 L 7.734375 -11.03125 L 7.734375 -9.109375 L 3.734375 -9.109375 L 3.734375 -6.6875 L 7.46875 -6.6875 L 7.46875 -4.78125 L 3.734375 -4.78125 L 3.734375 -1.9375 L 7.734375 -1.9375 Z M 7.734375 0 "/></g></g></g><g fill="#146c94" fill-opacity="1"><g transform="translate(159.093643, 333.637721)"><g><path d="M 6.078125 -9.25 C 5.191406 -9.25 4.507812 -8.914062 4.03125 -8.25 C 3.550781 -7.59375 3.3125 -6.671875 3.3125 -5.484375 C 3.3125 -3.023438 4.234375 -1.796875 6.078125 -1.796875 C 6.847656 -1.796875 7.785156 -1.988281 8.890625 -2.375 L 8.890625 -0.421875 C 7.984375 -0.0351562 6.972656 0.15625 5.859375 0.15625 C 4.253906 0.15625 3.023438 -0.328125 2.171875 -1.296875 C 1.316406 -2.273438 0.890625 -3.675781 0.890625 -5.5 C 0.890625 -6.644531 1.097656 -7.648438 1.515625 -8.515625 C 1.941406 -9.378906 2.546875 -10.039062 3.328125 -10.5 C 4.109375 -10.957031 5.023438 -11.1875 6.078125 -11.1875 C 7.148438 -11.1875 8.222656 -10.925781 9.296875 -10.40625 L 8.546875 -8.515625 C 8.140625 -8.710938 7.722656 -8.882812 7.296875 -9.03125 C 6.878906 -9.175781 6.472656 -9.25 6.078125 -9.25 Z M 6.078125 -9.25 "/></g></g></g><g fill="#146c94" fill-opacity="1"><g transform="translate(175.117464, 333.637721)"><g><path d="M 10.375 -11.03125 L 10.375 -3.890625 C 10.375 -3.078125 10.1875 -2.363281 9.8125 -1.75 C 9.445312 -1.132812 8.921875 -0.660156 8.234375 -0.328125 C 7.546875 -0.00390625 6.734375 0.15625 5.796875 0.15625 C 4.378906 0.15625 3.273438 -0.207031 2.484375 -0.9375 C 1.703125 -1.664062 1.3125 -2.660156 1.3125 -3.921875 L 1.3125 -11.03125 L 3.640625 -11.03125 L 3.640625 -4.28125 C 3.640625 -3.425781 3.8125 -2.800781 4.15625 -2.40625 C 4.5 -2.007812 5.066406 -1.8125 5.859375 -1.8125 C 6.617188 -1.8125 7.171875 -2.007812 7.515625 -2.40625 C 7.859375 -2.8125 8.03125 -3.441406 8.03125 -4.296875 L 8.03125 -11.03125 Z M 10.375 -11.03125 "/></g></g></g><g fill="#146c94" fill-opacity="1"><g transform="translate(192.974344, 333.637721)"><g><path d="M 3.734375 -6.140625 L 4.484375 -6.140625 C 5.222656 -6.140625 5.765625 -6.257812 6.109375 -6.5 C 6.460938 -6.75 6.640625 -7.140625 6.640625 -7.671875 C 6.640625 -8.191406 6.457031 -8.5625 6.09375 -8.78125 C 5.738281 -9 5.1875 -9.109375 4.4375 -9.109375 L 3.734375 -9.109375 Z M 3.734375 -4.234375 L 3.734375 0 L 1.390625 0 L 1.390625 -11.03125 L 4.609375 -11.03125 C 6.097656 -11.03125 7.203125 -10.753906 7.921875 -10.203125 C 8.648438 -9.660156 9.015625 -8.835938 9.015625 -7.734375 C 9.015625 -7.078125 8.832031 -6.492188 8.46875 -5.984375 C 8.113281 -5.484375 7.609375 -5.09375 6.953125 -4.8125 C 8.617188 -2.332031 9.703125 -0.726562 10.203125 0 L 7.609375 0 L 4.96875 -4.234375 Z M 3.734375 -4.234375 "/></g></g></g><g fill="#146c94" fill-opacity="1"><g transform="translate(209.352705, 333.637721)"><g><path d="M 1.390625 0 L 1.390625 -11.03125 L 3.734375 -11.03125 L 3.734375 0 Z M 1.390625 0 "/></g></g></g><g fill="#146c94" fill-opacity="1"><g transform="translate(220.646778, 333.637721)"><g><path d="M 5.640625 0 L 3.3125 0 L 3.3125 -9.078125 L 0.3125 -9.078125 L 0.3125 -11.03125 L 8.640625 -11.03125 L 8.640625 -9.078125 L 5.640625 -9.078125 Z M 5.640625 0 "/></g></g></g><g fill="#146c94" fill-opacity="1"><g transform="translate(235.77293, 333.637721)"><g><path d="M 4.828125 -6.484375 L 7.125 -11.03125 L 9.640625 -11.03125 L 5.984375 -4.296875 L 5.984375 0 L 3.65625 0 L 3.65625 -4.21875 L 0 -11.03125 L 2.53125 -11.03125 Z M 4.828125 -6.484375 "/></g></g></g></svg>